<mxfile host="app.diagrams.net" modified="2023-09-18T19:08:45.414Z" agent="Mozilla/5.0 (Windows NT 10.0; Win64; x64; rv:109.0) Gecko/20100101 Firefox/117.0" etag="tWyzFuJIlKZ-EzQmpbBP" version="21.7.5" type="github">
  <diagram name="Page-1" id="0783ab3e-0a74-02c8-0abd-f7b4e66b4bec">
    <mxGraphModel dx="1050" dy="530" grid="1" gridSize="10" guides="1" tooltips="1" connect="1" arrows="1" fold="1" page="1" pageScale="1" pageWidth="850" pageHeight="1100" background="none" math="0" shadow="0">
      <root>
        <mxCell id="0" />
        <mxCell id="1" parent="0" />
        <mxCell id="rSX78Jfsg2bhPNGJMBSI-6" value="" style="edgeStyle=orthogonalEdgeStyle;rounded=0;orthogonalLoop=1;jettySize=auto;html=1;" edge="1" parent="1" source="rSX78Jfsg2bhPNGJMBSI-3">
          <mxGeometry relative="1" as="geometry">
            <mxPoint x="425" y="220" as="targetPoint" />
          </mxGeometry>
        </mxCell>
        <mxCell id="rSX78Jfsg2bhPNGJMBSI-3" value="Start" style="strokeWidth=2;html=1;shape=mxgraph.flowchart.start_2;whiteSpace=wrap;" vertex="1" parent="1">
          <mxGeometry x="375" y="20" width="100" height="100" as="geometry" />
        </mxCell>
        <mxCell id="rSX78Jfsg2bhPNGJMBSI-9" value="" style="edgeStyle=orthogonalEdgeStyle;rounded=0;orthogonalLoop=1;jettySize=auto;html=1;" edge="1" parent="1" source="rSX78Jfsg2bhPNGJMBSI-7" target="rSX78Jfsg2bhPNGJMBSI-8">
          <mxGeometry relative="1" as="geometry" />
        </mxCell>
        <mxCell id="rSX78Jfsg2bhPNGJMBSI-7" value="&lt;div&gt;Initialize the agent,&lt;/div&gt;&lt;div&gt;game strategy, movement strategy.&lt;br&gt;&lt;/div&gt;" style="rounded=1;whiteSpace=wrap;html=1;absoluteArcSize=1;arcSize=14;strokeWidth=2;" vertex="1" parent="1">
          <mxGeometry x="375" y="220" width="100" height="100" as="geometry" />
        </mxCell>
        <mxCell id="rSX78Jfsg2bhPNGJMBSI-11" value="" style="edgeStyle=orthogonalEdgeStyle;rounded=0;orthogonalLoop=1;jettySize=auto;html=1;" edge="1" parent="1" source="rSX78Jfsg2bhPNGJMBSI-8" target="rSX78Jfsg2bhPNGJMBSI-10">
          <mxGeometry relative="1" as="geometry" />
        </mxCell>
        <mxCell id="rSX78Jfsg2bhPNGJMBSI-8" value="Initialize the game and world." style="rounded=1;whiteSpace=wrap;html=1;absoluteArcSize=1;arcSize=14;strokeWidth=2;" vertex="1" parent="1">
          <mxGeometry x="540" y="220" width="100" height="100" as="geometry" />
        </mxCell>
        <mxCell id="rSX78Jfsg2bhPNGJMBSI-10" value="Collision Process" style="rounded=1;whiteSpace=wrap;html=1;absoluteArcSize=1;arcSize=14;strokeWidth=2;" vertex="1" parent="1">
          <mxGeometry x="540" y="380" width="100" height="100" as="geometry" />
        </mxCell>
      </root>
    </mxGraphModel>
  </diagram>
</mxfile>
